# xmcd CD database file
#
# Track frame offsets:
#	150
#	27487
#	46482
#	68680
#	84070
#	100632
#	111595
#	133805
#	150887
#	169697
#	191587
#	204952
#	225510
#	246632
#
# Disc length: 3496 seconds
#
# Revision: 0
# Processed by: cddbd v1.5.1PL2 Copyright (c) Steve Scherf et al.
# Submitted via: CDex 1.51
#
DISCID=b10da60e
DTITLE=De las alturas - De los Andes
DYEAR=2000
DGENRE=New Age
TTITLE0=Nossa Senhora
TTITLE1=Em nome do Pai
TTITLE2=Grande Deus
TTITLE3=Ave Maria
TTITLE4=Oh Pai Santo
TTITLE5=Tão Sublime
TTITLE6=Segura na Mão
TTITLE7=Bendito
TTITLE8=Exodo
TTITLE9=Amado Jesus
TTITLE10=Vinde Santo Espírito
TTITLE11=Romaria
TTITLE12=Somos Povos de Deus Caminhando
TTITLE13=Nós pedimos a Vossa Benção
EXTD=YEAR: 2000
EXTT0=
EXTT1=
EXTT2=
EXTT3=
EXTT4=
EXTT5=
EXTT6=
EXTT7=
EXTT8=
EXTT9=
EXTT10=
EXTT11=
EXTT12=
EXTT13=
PLAYORDER=
